<svg width="23" height="17" fill="none" xmlns="http://www.w3.org/2000/svg"><path d="M21.303 3.007a2.675 2.675 0 00-1.867-1.925C17.78.677 11.157.677 11.157.677s-6.622 0-8.278.443A2.676 2.676 0 001.01 3.045a27.916 27.916 0 00-.44 5.092c-.011 1.72.137 3.438.442 5.131a2.676 2.676 0 001.868 1.848c1.656.443 8.278.443 8.278.443s6.623 0 8.279-.443a2.676 2.676 0 001.867-1.925c.3-1.668.45-3.359.443-5.054.01-1.72-.137-3.437-.443-5.13z" fill="#fff" stroke="#fff" stroke-opacity=".8" stroke-linecap="round" stroke-linejoin="round"/><path d="M8.992 11.285l5.534-3.148L8.992 4.99v6.295z" stroke="#939393" stroke-linecap="round" stroke-linejoin="round"/></svg>