<svg width="11" height="13" fill="none" xmlns="http://www.w3.org/2000/svg"><path d="M2.139 0H8.86a.609.609 0 01.489.26L11 2.6v9.75a.672.672 0 01-.179.46.593.593 0 01-.432.19H.61a.593.593 0 01-.432-.19.672.672 0 01-.179-.46V2.6L1.65.26a.622.622 0 01.216-.191A.581.581 0 012.139 0zm7.333 2.6l-.916-1.3H2.444l-.916 1.3h7.944zM3.667 5.2H2.444v1.3c0 .862.322 1.689.895 2.298.573.61 1.35.952 2.161.952.81 0 1.588-.342 2.16-.952.574-.61.896-1.436.896-2.298V5.2H7.333v1.3c0 .517-.193 1.013-.537 1.379A1.78 1.78 0 015.5 8.45a1.78 1.78 0 01-1.296-.571A2.015 2.015 0 013.667 6.5V5.2z" fill="#fff"/></svg>