<svg width="13" height="15" fill="none" xmlns="http://www.w3.org/2000/svg"><path d="M2.528 0h7.944a.7.7 0 01.323.08.73.73 0 01.255.22L13 3v11.25c0 .199-.076.39-.211.53a.709.709 0 01-.511.22H.722a.709.709 0 01-.51-.22.765.765 0 01-.212-.53V3L1.95.3a.73.73 0 01.255-.22.7.7 0 01.323-.08zm8.666 3l-1.083-1.5H2.89L1.806 3h9.388zm-6.86 3H2.888v1.5c0 .995.38 1.948 1.058 2.652A3.545 3.545 0 006.5 11.25c.958 0 1.876-.395 2.553-1.098A3.825 3.825 0 0010.111 7.5V6H8.667v1.5c0 .597-.229 1.169-.635 1.591A2.127 2.127 0 016.5 9.75a2.127 2.127 0 01-1.532-.659A2.295 2.295 0 014.333 7.5V6z" fill="#686868"/></svg>