<svg width="10" height="9" fill="none" xmlns="http://www.w3.org/2000/svg"><path d="M6.683 0l1.606 2.85H10v1.025h-.584L9.038 8.53a.517.517 0 01-.16.335A.493.493 0 018.54 9H1.46a.493.493 0 01-.338-.135.517.517 0 01-.16-.335L.583 3.875H0V2.85h1.711L3.317 0l.866.512L2.866 2.85h4.268L5.816.512 6.683 0zm1.73 3.875H1.586l.334 4.1h6.16l.333-4.1zM5.5 4.9v2.05h-1V4.9h1zm-2 0v2.05h-1V4.9h1zm4 0v2.05h-1V4.9h1z" fill="url(#paint0_linear_23_6)"/><defs><linearGradient id="paint0_linear_23_6" x1="-.145" y1=".29" x2="11.611" y2="4.488" gradientUnits="userSpaceOnUse"><stop offset="0" stop-color="#0047FF"/><stop offset="1" stop-color="#EC00E2"/></linearGradient></defs></svg>